<?xml version="1.0" encoding="UTF-8"?>
<svg version="1.1" xmlns="http://www.w3.org/2000/svg" width="225" height="225">
<path d="M0 0 C16.65995094 15.21224614 28.079924 34.38648934 33.47998047 56.32421875 C33.66326904 57.05866211 33.84655762 57.79310547 34.03540039 58.54980469 C35.62135713 65.52435389 35.82723701 72.31506031 35.79248047 79.44921875 C35.78510864 81.23718872 35.78510864 81.23718872 35.77758789 83.0612793 C35.38107983 113.00272104 22.73801508 139.4822189 1.47998047 160.32421875 C-19.93404827 180.63263188 -47.9318207 189.32100631 -77.11376953 188.609375 C-100.33414427 187.62956046 -124.32558266 179.2923857 -141.52001953 163.32421875 C-142.31786865 162.58776123 -142.31786865 162.58776123 -143.13183594 161.83642578 C-164.51387156 141.89694734 -178.59223478 117.19247792 -179.92236328 87.453125 C-180.20298774 75.47402012 -179.86065293 63.89351189 -176.52001953 52.32421875 C-176.25318359 51.33421875 -175.98634766 50.34421875 -175.71142578 49.32421875 C-171.61156417 35.62157015 -164.63562888 23.28801007 -155.52001953 12.32421875 C-154.81103516 11.463125 -154.10205078 10.60203125 -153.37158203 9.71484375 C-134.10282271 -12.68421943 -107.47096748 -25.08841755 -78.27392578 -27.41796875 C-49.38684365 -29.22962067 -21.63121556 -19.02665247 0 0 Z M-147.52001953 49.32421875 C-148.18001953 50.64421875 -148.84001953 51.96421875 -149.52001953 53.32421875 C-147.80018303 55.22509067 -146.37834982 56.39905373 -144.09033203 57.60766602 C-135.27709458 63.49348218 -132.15408335 80.27348548 -128.77001953 90.05444336 C-123.37925472 106.91261008 -123.37925472 106.91261008 -112.52001953 120.32421875 C-106.89868703 122.89047924 -101.93359522 123.0138118 -96.02001953 121.32421875 C-83.5805421 115.11833246 -79.75913487 98.66277673 -75.44580078 86.546875 C-74.9303772 85.10078857 -74.9303772 85.10078857 -74.40454102 83.62548828 C-73.75232938 81.77532082 -73.11167017 79.92102188 -72.48510742 78.06201172 C-69.64090655 69.88712704 -66.5750657 61.42581863 -58.52001953 57.32421875 C-51.25306515 55.85761523 -44.0561147 58.31200064 -37.13330078 60.3515625 C-24.44231617 63.76783836 -9.54362551 64.16467812 2.16748047 57.44921875 C4.74986478 55.52986001 4.74986478 55.52986001 4.85498047 52.57421875 C4.73123047 51.83171875 4.60748047 51.08921875 4.47998047 50.32421875 C2.10513222 49.48852605 0.90948472 49.16198056 -1.48486328 50.06640625 C-2.46132813 50.62714844 -2.46132813 50.62714844 -3.45751953 51.19921875 C-14.80467989 57.65108329 -29.49440303 54.07221078 -41.52001953 51.32421875 C-43.32019531 50.79248047 -43.32019531 50.79248047 -45.15673828 50.25 C-50.73891708 48.71344207 -56.46080108 48.08172064 -61.93408203 50.3046875 C-65.95361998 52.6707229 -65.95361998 52.6707229 -68.54736328 56.43359375 C-69.52001953 58.32421875 -69.52001953 58.32421875 -72.52001953 59.32421875 C-77.55127232 66.73522941 -80.05879508 75.9316652 -83.02001953 84.32421875 C-91.96414763 109.67321722 -91.96414763 109.67321722 -97.52001953 113.32421875 C-100.2633257 114.21505581 -102.65408398 114.73218111 -105.52001953 114.32421875 C-117.71660013 107.69564234 -120.7881882 90.27850977 -124.79248047 77.89477539 C-129.84861732 62.16891295 -129.84861732 62.16891295 -140.45751953 50.01171875 C-142.90428479 49.19613033 -144.95763863 49.18186426 -147.52001953 49.32421875 Z M-61.52001953 83.32421875 C-61.20150183 85.43242672 -61.20150183 85.43242672 -60.52001953 87.32421875 C-58.71749084 88.02616868 -58.71749084 88.02616868 -56.52001953 88.32421875 C-55.94251953 88.01484375 -55.36501953 87.70546875 -54.77001953 87.38671875 C-48.64973956 84.49658654 -42.16938004 86.83830634 -36.14501953 88.82421875 C-24.64178726 92.28842437 -11.54353551 93.93894852 -0.38330078 88.46484375 C2.04565518 86.9779357 3.90388929 85.72588149 5.47998047 83.32421875 C5.3435667 81.10563622 5.3435667 81.10563622 4.47998047 79.32421875 C2.69611228 78.58356229 2.69611228 78.58356229 0.47998047 78.32421875 C-1.65243878 79.31138939 -1.65243878 79.31138939 -3.83251953 80.76171875 C-14.65316259 86.384673 -26.27702772 83.32304673 -37.37890625 80.10400391 C-46.0993283 77.62631068 -54.54120695 76.34540616 -61.52001953 83.32421875 Z " fill="#8CCAED" transform="translate(184.52001953125,31.67578125)"/>
<path d="M0 0 C0.66 0 1.32 0 2 0 C2.80185259 32.83072344 -4.13371179 61.66066491 -27.30419922 86.27612305 C-46.38831322 105.98609158 -71.90359303 118.60632682 -99.66796875 119.17578125 C-104.7809268 119.21414442 -109.88911108 119.14536513 -115 119 C-115 118.67 -115 118.34 -115 118 C-113.87525269 117.93268677 -113.87525269 117.93268677 -112.7277832 117.86401367 C-109.25522765 117.64973087 -105.78396946 117.41868858 -102.3125 117.1875 C-101.13365234 117.11724609 -99.95480469 117.04699219 -98.74023438 116.97460938 C-91.48510936 116.477683 -84.6801996 115.4239474 -77.63354492 113.61450195 C-75 113 -75 113 -72 113 C-72 112.34 -72 111.68 -72 111 C-70.4840625 110.5978125 -70.4840625 110.5978125 -68.9375 110.1875 C-61.44812542 108.00931536 -55.22630343 104.4570948 -48.57421875 100.42578125 C-46 99 -46 99 -44 99 C-43.505 97.515 -43.505 97.515 -43 96 C-40.03145515 93.80585815 -37.50820059 92.1694002 -34 91 C-33.31513275 89.67592331 -32.65129797 88.34090759 -32 87 C-30 84.75 -30 84.75 -28 83 C-27.34 83 -26.68 83 -26 83 C-25.62875 81.9171875 -25.62875 81.9171875 -25.25 80.8125 C-23.87730408 77.72393418 -22.27646704 75.48988582 -20 73 C-19.34 73 -18.68 73 -18 73 C-17.855625 72.21625 -17.71125 71.4325 -17.5625 70.625 C-17 68 -17 68 -16 66 C-15.34 66 -14.68 66 -14 66 C-13.67 64.35 -13.34 62.7 -13 61 C-12.34 61 -11.68 61 -11 61 C-10.32955718 58.98867153 -9.65976858 56.97712387 -8.9921875 54.96484375 C-8.25649792 52.76646425 -7.51002821 50.57168602 -6.7578125 48.37890625 C-2.22792018 35.12278029 0.20410197 22.97788022 0.0625 8.9375 C0.05798828 8.07189453 0.05347656 7.20628906 0.04882812 6.31445312 C0.03719913 4.20960461 0.01927073 2.10479242 0 0 Z " fill="#86A9C1" transform="translate(218,101)"/>
<path d="M0 0 C3.99917342 0.36967149 6.41969862 0.71177063 9.69921875 3.15234375 C18.68655171 14.81158651 18.68655171 14.81158651 19.01171875 21.15234375 C19.67171875 21.15234375 20.33171875 21.15234375 21.01171875 21.15234375 C24.39666983 26.59769984 24.6854538 31.82955404 25.01171875 38.15234375 C23.01171875 37.15234375 23.01171875 37.15234375 21.71484375 33.72265625 C21.22677201 32.24209895 20.74263685 30.76024015 20.26171875 29.27734375 C15.57369411 15.13622311 15.57369411 15.13622311 6.01171875 4.15234375 C2.32730371 3.26707266 2.32730371 3.26707266 -0.98828125 3.15234375 C-1.31828125 4.80234375 -1.64828125 6.45234375 -1.98828125 8.15234375 C-0.68890625 8.36890625 -0.68890625 8.36890625 0.63671875 8.58984375 C7.5627075 11.79632002 10.19145648 19.18934112 12.7578125 26.03125 C13.43233417 27.93252177 14.10659608 29.83393265 14.76553345 31.74066162 C15.92546669 35.09003812 17.13096661 38.42301247 18.33203125 41.7578125 C18.56479263 42.40671448 18.79755402 43.05561646 19.03736877 43.72418213 C22.83865985 54.28276994 26.64044777 64.52256309 34.01171875 73.15234375 C32.69171875 72.82234375 31.37171875 72.49234375 30.01171875 72.15234375 C30.01171875 71.49234375 30.01171875 70.83234375 30.01171875 70.15234375 C29.35171875 70.15234375 28.69171875 70.15234375 28.01171875 70.15234375 C22.60672247 62.94568204 19.97820587 54.55594578 17.01171875 46.15234375 C16.37784124 44.38272756 15.74371797 42.61319939 15.109375 40.84375 C14.47165019 39.05113884 13.83491684 37.25817463 13.19921875 35.46484375 C12.89709473 34.61567383 12.5949707 33.76650391 12.28369141 32.89160156 C10.92153604 29.00217679 9.65270342 25.23966156 9.01171875 21.15234375 C8.35171875 21.15234375 7.69171875 21.15234375 7.01171875 21.15234375 C6.35171875 18.84234375 5.69171875 16.53234375 5.01171875 14.15234375 C4.35171875 14.15234375 3.69171875 14.15234375 3.01171875 14.15234375 C2.68171875 12.83234375 2.35171875 11.51234375 2.01171875 10.15234375 C1.20734375 10.00796875 0.40296875 9.86359375 -0.42578125 9.71484375 C-2.98828125 9.15234375 -2.98828125 9.15234375 -3.98828125 8.15234375 C-4.17578125 5.21484375 -4.17578125 5.21484375 -3.98828125 2.15234375 C-1.98828125 0.15234375 -1.98828125 0.15234375 0 0 Z " fill="#84AAC3" transform="translate(37.98828125,78.84765625)"/>
<path d="M0 0 C3.3125 -0.3125 3.3125 -0.3125 7 0 C9 2.3125 9 2.3125 10 5 C8.75421965 8.73734105 7.37855483 10.23851257 3.94921875 12.1328125 C3.20285156 12.46023437 2.45648438 12.78765625 1.6875 13.125 C0.94886719 13.45757812 0.21023437 13.79015625 -0.55078125 14.1328125 C-11.43439305 17.98634012 -25.25707109 17.05577801 -35.75 12.375 C-41.508876 10.00719768 -47.89628351 10.76853884 -54 11 C-51.40090356 8.40090356 -50.00051724 8.00004771 -46.2734375 7.65625 C-41.78673993 7.83032972 -37.859745 9.10402899 -33.625 10.5 C-21.93441447 14.02062717 -9.24468179 15.4142186 2.15234375 10.16796875 C4.12628755 8.92016918 5.56898037 7.85269939 7 6 C7 4.68 7 3.36 7 2 C3.28126752 2.37187325 0.69284214 3.12401679 -2.4375 5.0625 C-9.59311305 8.8540098 -19.27487297 7.8849243 -26.9375 6 C-27.948125 5.67 -28.95875 5.34 -30 5 C-30 4.67 -30 4.34 -30 4 C-28.94872925 4.00785522 -28.94872925 4.00785522 -27.8762207 4.01586914 C-24.68832299 4.03670852 -21.50043964 4.04968232 -18.3125 4.0625 C-16.65831055 4.07506836 -16.65831055 4.07506836 -14.97070312 4.08789062 C-13.90400391 4.09111328 -12.83730469 4.09433594 -11.73828125 4.09765625 C-10.75899658 4.10289307 -9.77971191 4.10812988 -8.77075195 4.11352539 C-6.07530428 4.00308543 -3.62454361 3.60534166 -1 3 C-0.67 2.01 -0.34 1.02 0 0 Z " fill="#87AEC6" transform="translate(182,109)"/>
<path d="M0 0 C26.02914543 -1.63590998 51.35224537 8.24281235 70.875 25.3203125 C76.30577003 30.22843868 81.53017101 35.18423737 86 41 C86 41.66 86 42.32 86 43 C84.1875 42.875 84.1875 42.875 82 42 C81.4121875 40.700625 81.4121875 40.700625 80.8125 39.375 C78.59316671 35.24244835 75.93938271 33.40308212 72.2109375 30.6640625 C69.55521405 28.66523177 67.31510707 26.3794156 65 24 C62.12825593 21.54851116 59.45543273 19.53574788 56 18 C56 17.34 56 16.68 56 16 C55.030625 15.87625 54.06125 15.7525 53.0625 15.625 C52.051875 15.41875 51.04125 15.2125 50 15 C49.505 14.01 49.505 14.01 49 13 C46.46594285 11.94665083 43.96840628 11.00855443 41.375 10.125 C40.60736328 9.86106445 39.83972656 9.59712891 39.04882812 9.32519531 C26.14531172 4.9584241 13.55296227 2.26074068 0 1 C0 0.67 0 0.34 0 0 Z " fill="#88ACC6" transform="translate(112,5)"/>
<path d="M0 0 C3.75376152 1.25125384 4.24073289 2.5652404 6 6 C6 6.66 6 7.32 6 8 C6.61875 8.226875 7.2375 8.45375 7.875 8.6875 C10.61410209 10.37929835 11.05024472 11.99244161 12 15 C12.66 15 13.32 15 14 15 C15.62109375 16.6796875 15.62109375 16.6796875 17.4375 18.875 C19.58400884 21.46193722 21.16776562 23.11184374 24 25 C24 25.66 24 26.32 24 27 C24.598125 27.268125 25.19625 27.53625 25.8125 27.8125 C28 29 28 29 29.375 30.4375 C31.62178893 32.59787397 34.19435073 33.69069701 37 35 C37 35.66 37 36.32 37 37 C37.99 36.8453125 37.99 36.8453125 39 36.6875 C42.16277134 37.01695535 43.12974469 37.57965969 45.6875 39.3125 C49.58687327 41.93436432 53.37864965 43.21846399 57.8984375 44.421875 C60 45 60 45 62 46 C62 46.66 62 47.32 62 48 C62.556875 48.04898438 63.11375 48.09796875 63.6875 48.1484375 C68.96567265 48.66555577 73.88362365 49.60462463 79 51 C74.9028681 52.64312061 71.10535957 51.38685252 67 50.375 C66.24106445 50.19042236 65.48212891 50.00584473 64.70019531 49.81567383 C37.60276529 42.94965483 14.3790482 24.8509609 0 1 C0 0.67 0 0.34 0 0 Z " fill="#83ABC4" transform="translate(20,167)"/>
<path d="M0 0 C0.495 0.99 0.495 0.99 1 2 C0.34 2 -0.32 2 -1 2 C-1 2.66 -1 3.32 -1 4 C-2.65071396 5.02611949 -4.31970006 6.02308143 -6 7 C-6.495 7.53625 -6.99 8.0725 -7.5 8.625 C-9.51536084 10.4724141 -11.33833049 10.64031493 -14 11 C-14.33 11.99 -14.66 12.98 -15 14 C-15.66 14 -16.32 14 -17 14 C-17.66 15.32 -18.32 16.64 -19 18 C-19.66 18 -20.32 18 -21 18 C-21.33 18.99 -21.66 19.98 -22 21 C-22.639375 21.12375 -23.27875 21.2475 -23.9375 21.375 C-24.618125 21.58125 -25.29875 21.7875 -26 22 C-26.70211894 23.65204456 -27.36971413 25.31923769 -28 27 C-28.99 27.33 -29.98 27.66 -31 28 C-32.22520264 31.00847418 -32.22520264 31.00847418 -33 34 C-33.66 34 -34.32 34 -35 34 C-36.32 36.97 -37.64 39.94 -39 43 C-39.66 43 -40.32 43 -41 43 C-41.66 44.32 -42.32 45.64 -43 47 C-43.33 46.34 -43.66 45.68 -44 45 C-35.27464157 25.30282891 -17.6928563 11.22218956 0 0 Z " fill="#85AEC9" transform="translate(61,17)"/>
<path d="M0 0 C7.3949681 2.97983998 15.00290824 3.17006448 22.87792969 3.14477539 C23.90080078 3.16088867 24.92367187 3.17700195 25.97753906 3.19360352 C26.96173828 3.19424805 27.9459375 3.19489258 28.95996094 3.19555664 C29.84530518 3.1985376 30.73064941 3.20151855 31.64282227 3.20458984 C34.52562292 2.76155135 35.82110142 1.62839978 38.06542969 -0.16772461 C40.31542969 0.14477539 40.31542969 0.14477539 42.06542969 0.83227539 C29.13434807 8.69234461 15.21414836 6.06542075 1.06542969 2.83227539 C-0.1346875 2.4777832 -1.33480469 2.12329102 -2.57128906 1.75805664 C-8.13952599 0.22533637 -13.92965276 -0.47569034 -19.34863281 1.88305664 C-22.19890786 3.63986253 -24.56662017 5.46432525 -26.93457031 7.83227539 C-27.92457031 7.50227539 -28.91457031 7.17227539 -29.93457031 6.83227539 C-28.55957031 5.33227539 -28.55957031 5.33227539 -26.93457031 3.83227539 C-26.27457031 3.83227539 -25.61457031 3.83227539 -24.93457031 3.83227539 C-24.60457031 2.84227539 -24.27457031 1.85227539 -23.93457031 0.83227539 C-16.38842573 -3.59698338 -7.92731912 -3.4727476 0 0 Z " fill="#84ABC1" transform="translate(141.9345703125,81.167724609375)"/>
<path d="M0 0 C4.5509527 0.10906423 7.96140956 0.22709549 11.6875 3 C20.67483296 14.65924276 20.67483296 14.65924276 21 21 C21.66 21 22.32 21 23 21 C26.38495108 26.44535609 26.67373505 31.67721029 27 38 C25 37 25 37 23.703125 33.5703125 C23.21505326 32.0897552 22.7309181 30.6078964 22.25 29.125 C17.52294705 15.0325769 17.52294705 15.0325769 8 4 C5.35943259 2.79076819 2.77471537 1.89355241 0 1 C0 0.67 0 0.34 0 0 Z " fill="#88AFC5" transform="translate(36,79)"/>
<path d="M0 0 C1.23251361 3.69754082 0.61194656 4.79941656 -0.6953125 8.41015625 C-1.08203125 9.48330078 -1.46875 10.55644531 -1.8671875 11.66210938 C-2.28226563 12.78423828 -2.69734375 13.90636719 -3.125 15.0625 C-3.516875 16.15755859 -3.90875 17.25261719 -4.3125 18.38085938 C-11.13891228 37.10887608 -11.13891228 37.10887608 -17 41 C-15.86931401 37.8135213 -14.43701683 35.05934837 -12.6875 32.1875 C-9.55399292 26.67844331 -7.92633517 20.80384041 -6.12890625 14.765625 C-4.55739148 9.52361727 -3.05356902 4.58035353 0 0 Z " fill="#86ABC2" transform="translate(105,103)"/>
<path d="M0 0 C7.21056128 8.69878759 11.75383468 23.69247975 11 35 C10.67 35 10.34 35 10 35 C9.81824219 34.09636719 9.63648438 33.19273438 9.44921875 32.26171875 C9.19785156 31.08222656 8.94648438 29.90273437 8.6875 28.6875 C8.44386719 27.51574219 8.20023438 26.34398437 7.94921875 25.13671875 C7.03606345 22.11917264 6.44125126 20.89419215 4 19 C3.34 19.66 2.68 20.32 2 21 C0.875 15.375 0.875 15.375 2 12 C2.66 12 3.32 12 4 12 C3.71125 11.38511719 3.4225 10.77023438 3.125 10.13671875 C2.75375 9.32847656 2.3825 8.52023438 2 7.6875 C1.62875 6.88699219 1.2575 6.08648437 0.875 5.26171875 C0 3 0 3 0 0 Z " fill="#89B3CE" transform="translate(208,64)"/>
<path d="M0 0 C5.875 0.875 5.875 0.875 7 2 C6.29411765 9.41176471 6.29411765 9.41176471 5 12 C5.33 12.66 5.66 13.32 6 14 C6.66 14 7.32 14 8 14 C7.67 14.66 7.34 15.32 7 16 C5.576875 15.9690625 5.576875 15.9690625 4.125 15.9375 C1.09333717 15.77448174 1.09333717 15.77448174 -1 17 C-3.3400417 16.71758117 -5.67504723 16.38749213 -8 16 C-7 13 -7 13 -5.2578125 12.12109375 C-4.55398437 11.89550781 -3.85015625 11.66992188 -3.125 11.4375 C-0.29073539 10.51191912 1.45158826 9.69894116 4 8 C4.25030977 5.41619823 4.25030977 5.41619823 4 3 C2.68 2.34 1.36 1.68 0 1 C0 0.67 0 0.34 0 0 Z " fill="#8DC5E6" transform="translate(184,79)"/>
<path d="M0 0 C3 3.75 3 3.75 3 6 C3.66 6 4.32 6 5 6 C5 6.66 5 7.32 5 8 C5.99 8 6.98 8 8 8 C8 8.66 8 9.32 8 10 C7.01 10.495 7.01 10.495 6 11 C6.44949031 14.48354993 7.54300162 17.33789119 9 20.5 C10.45699838 23.66210881 11.55050969 26.51645007 12 30 C8.66385588 27.26579014 7.18224544 23.58468782 5.4375 19.75 C4.98213867 18.78513672 4.98213867 18.78513672 4.51757812 17.80078125 C1.87185 12.07125238 -0.38888781 6.41664879 0 0 Z " fill="#7EA4BF" transform="translate(8,136)"/>
<path d="M0 0 C0.66 0 1.32 0 2 0 C1.13706322 5.25606951 -0.86628363 9.92307787 -2.84375 14.84375 C-3.84780224 17.58454125 -4.52843313 20.12772904 -5 23 C-5.66 23 -6.32 23 -7 23 C-6.9175 23.639375 -6.835 24.27875 -6.75 24.9375 C-7.10665416 29.30651349 -8.55285728 33.34439173 -11 37 C-13.07910156 37.61816406 -13.07910156 37.61816406 -15 38 C-14.25556641 36.39898437 -14.25556641 36.39898437 -13.49609375 34.765625 C-8.28542345 23.39243423 -3.96223292 11.8619348 0 0 Z " fill="#8BAEC9" transform="translate(112,107)"/>
<path d="M0 0 C0.77279297 -0.00708984 1.54558594 -0.01417969 2.34179688 -0.02148438 C7.62054449 0.03652384 11.34658216 1.0701218 16.0625 3.4375 C12.35270188 4.60858418 10.01098748 3.94479362 6.27734375 2.9296875 C1.08837243 1.77658276 -3.43634269 1.90137239 -8.4375 3.6875 C-11.07029467 5.1904512 -11.07029467 5.1904512 -11.8125 7.625 C-11.85375 8.223125 -11.895 8.82125 -11.9375 9.4375 C-10.6175 10.4275 -9.2975 11.4175 -7.9375 12.4375 C-10.3125 12.5625 -10.3125 12.5625 -12.9375 12.4375 C-14.9375 10.4375 -14.9375 10.4375 -15.4375 7.5625 C-14.9375 4.4375 -14.9375 4.4375 -12.46484375 2.26953125 C-8.06291628 -0.01674116 -4.87029493 -0.12529389 0 0 Z " fill="#86ABCA" transform="translate(135.9375,108.5625)"/>
<path d="M0 0 C2.76455352 2.76455352 3.55254884 6.07193505 4.8125 9.6875 C7.73963992 18.0354837 7.73963992 18.0354837 13 25 C15.78212039 25.84188413 18.03828256 25.90597722 21 26 C22.34084736 26.30169066 23.6806062 26.61517681 25 27 C22.29960733 28.83626701 20.88934639 28.99597623 17.5625 28.875 C13.54506224 27.8882609 11.98318664 26.82519856 9 24 C7.6167911 21.69927177 6.43772388 19.53948951 5.3125 17.125 C5.01794922 16.52558594 4.72339844 15.92617187 4.41992188 15.30859375 C1.94252007 10.17563989 0 5.73598939 0 0 Z " fill="#88ADC9" transform="translate(63,118)"/>
<path d="M0 0 C0 0.66 0 1.32 0 2 C-0.845625 1.94199219 -1.69125 1.88398437 -2.5625 1.82421875 C-10.16450483 1.52186629 -15.15308771 1.93574526 -21 7 C-21.66 7.66 -22.32 8.32 -23 9 C-23.99 8.67 -24.98 8.34 -26 8 C-24.625 6.5 -24.625 6.5 -23 5 C-22.34 5 -21.68 5 -21 5 C-20.67 4.01 -20.34 3.02 -20 2 C-14.35243674 -1.31487409 -6.12516782 -3.06258391 0 0 Z " fill="#8AB0C7" transform="translate(138,80)"/>
<path d="M0 0 C5.875 0.875 5.875 0.875 7 2 C7.25818736 7.16374714 7.25818736 7.16374714 6 10 C2.8810949 12.22778936 -0.42438265 13.65022067 -4 15 C-2.5361389 10.60841671 -0.02168662 10.12052567 4 8 C4 6.35 4 4.7 4 3 C2.68 2.34 1.36 1.68 0 1 C0 0.67 0 0.34 0 0 Z " fill="#86AECB" transform="translate(184,79)"/>
<path d="M0 0 C3 3.75 3 3.75 3 6 C3.66 6 4.32 6 5 6 C5 6.66 5 7.32 5 8 C5.99 8 6.98 8 8 8 C8 8.66 8 9.32 8 10 C6 11.625 6 11.625 4 13 C3.67 11.35 3.34 9.7 3 8 C2.34 8 1.68 8 1 8 C0.67 5.36 0.34 2.72 0 0 Z " fill="#84B6D4" transform="translate(8,136)"/>
<path d="M0 0 C5.59448174 0.01064475 9.93769383 0.45895492 14.8125 3.3125 C11.14307087 4.4632201 8.93119845 3.8317918 5.25 2.79296875 C0.49601926 1.85588601 -4.36384976 2.16779049 -9.1875 2.3125 C-6.27872023 -0.59627977 -4.0503626 0.01199515 0 0 Z " fill="#88A9BF" transform="translate(137.1875,108.6875)"/>
<path d="M0 0 C8.25 0.33 16.5 0.66 25 1 C25 1.33 25 1.66 25 2 C21.95877308 2.22282257 18.9179572 2.42868018 15.875 2.625 C15.0190625 2.68945312 14.163125 2.75390625 13.28125 2.8203125 C8.36144244 3.12306989 4.6307706 2.98895393 0 1 C0 0.67 0 0.34 0 0 Z " fill="#8BB5D7" transform="translate(96,217)"/>
<path d="M0 0 C3.61621957 1.20540652 4.06985695 2.2255028 6.0625 5.375 C6.56910156 6.16648438 7.07570313 6.95796875 7.59765625 7.7734375 C8.06042969 8.50820312 8.52320312 9.24296875 9 10 C9.99 11.485 9.99 11.485 11 13 C9.68 12.67 8.36 12.34 7 12 C7 11.34 7 10.68 7 10 C6.34 10 5.68 10 5 10 C3.7109375 8.3203125 3.7109375 8.3203125 2.375 6.125 C1.92898437 5.40570313 1.48296875 4.68640625 1.0234375 3.9453125 C0 2 0 2 0 0 Z " fill="#84AEC9" transform="translate(61,139)"/>
<path d="M0 0 C2.493289 2.95221856 3.54126145 5.27303499 4.25 9.0625 C4.50523438 10.34833984 4.50523438 10.34833984 4.765625 11.66015625 C5 14 5 14 4 17 C1.16625922 11.33251843 0.36776168 6.30267439 0 0 Z " fill="#8AB7D3" transform="translate(58,100)"/>
<path d="M0 0 C0.99 0.33 1.98 0.66 3 1 C1.02 4.63 -0.96 8.26 -3 12 C-4 10 -4 10 -3.4765625 7.87109375 C-3.05503906 6.66646484 -3.05503906 6.66646484 -2.625 5.4375 C-2.34914063 4.63183594 -2.07328125 3.82617188 -1.7890625 2.99609375 C-1 1 -1 1 0 0 Z " fill="#89ABCA" transform="translate(110,90)"/>
<path d="M0 0 C2.12534659 0.14069196 4.25027529 0.28770921 6.375 0.4375 C8.15003906 0.55931641 8.15003906 0.55931641 9.9609375 0.68359375 C13 1 13 1 15 2 C10.46298506 3.45184478 6.81938524 4.23509196 2 4 C1.34 2.68 0.68 1.36 0 0 Z " fill="#87AFC8" transform="translate(72,152)"/>
<path d="M0 0 C3.75376152 1.25125384 4.24073289 2.5652404 6 6 C6 6.66 6 7.32 6 8 C6.99 8.33 7.98 8.66 9 9 C8.67 9.99 8.34 10.98 8 12 C6.84906075 10.5665848 5.70441965 9.12811091 4.5625 7.6875 C3.92441406 6.88699219 3.28632813 6.08648437 2.62890625 5.26171875 C1 3 1 3 0 0 Z " fill="#87A9C1" transform="translate(20,167)"/>
<path d="M0 0 C0 0.66 0 1.32 0 2 C-0.66 2 -1.32 2 -2 2 C-2 2.99 -2 3.98 -2 5 C-2.99 5.33 -3.98 5.66 -5 6 C-5.33 6.66 -5.66 7.32 -6 8 C-6.99 8 -7.98 8 -9 8 C-9 6 -9 6 -7.5390625 4.4921875 C-6.59160156 3.69167969 -6.59160156 3.69167969 -5.625 2.875 C-4.99851562 2.33617187 -4.37203125 1.79734375 -3.7265625 1.2421875 C-2 0 -2 0 0 0 Z " fill="#88B3CF" transform="translate(98,146)"/>
<path d="M0 0 C3.3125 -0.3125 3.3125 -0.3125 7 0 C8.9375 2.5 8.9375 2.5 10 5 C9.01 4.67 8.02 4.34 7 4 C7 3.34 7 2.68 7 2 C4.69 2.33 2.38 2.66 0 3 C0 2.01 0 1.02 0 0 Z " fill="#8EB6CC" transform="translate(182,109)"/>
<path d="M0 0 C1.24546405 2.49092811 0.7767578 3.41080733 0 6 C1.98 6.66 3.96 7.32 6 8 C6 8.33 6 8.66 6 9 C3.625 9.125 3.625 9.125 1 9 C-1 7 -1 7 -1.1875 3.9375 C-1 1 -1 1 0 0 Z " fill="#8CB8D5" transform="translate(122,112)"/>
<path d="M0 0 C0.66 0 1.32 0 2 0 C2.33 1.32 2.66 2.64 3 4 C1.02 4.99 1.02 4.99 -1 6 C-0.67 4.02 -0.34 2.04 0 0 Z " fill="#84B4D3" transform="translate(11,75)"/>
<path d="M0 0 C-4.1205746 1.99785435 -7.45194365 2.17835515 -12 2 C-7.72170329 -0.29194467 -4.74957752 -1.52664992 0 0 Z " fill="#8BBFE1" transform="translate(93,9)"/>
<path d="" fill="#FFFFFF" transform="translate(0,0)"/>
<path d="" fill="#FFFFFF" transform="translate(0,0)"/>
<path d="" fill="#FFFFFF" transform="translate(0,0)"/>
<path d="" fill="#FFFFFF" transform="translate(0,0)"/>
<path d="" fill="#FFFFFF" transform="translate(0,0)"/>
<path d="" fill="#FFFFFF" transform="translate(0,0)"/>
<path d="" fill="#FFFFFF" transform="translate(0,0)"/>
<path d="" fill="#FFFFFF" transform="translate(0,0)"/>
<path d="" fill="#FFFFFF" transform="translate(0,0)"/>
<path d="" fill="#FFFFFF" transform="translate(0,0)"/>
<path d="" fill="#FFFFFF" transform="translate(0,0)"/>
<path d="" fill="#FFFFFF" transform="translate(0,0)"/>
<path d="" fill="#FFFFFF" transform="translate(0,0)"/>
<path d="" fill="#FFFFFF" transform="translate(0,0)"/>
<path d="" fill="#FFFFFF" transform="translate(0,0)"/>
<path d="" fill="#FFFFFF" transform="translate(0,0)"/>
<path d="" fill="#FFFFFF" transform="translate(0,0)"/>
<path d="" fill="#FFFFFF" transform="translate(0,0)"/>
<path d="" fill="#FFFFFF" transform="translate(0,0)"/>
<path d="" fill="#FFFFFF" transform="translate(0,0)"/>
<path d="" fill="#FFFFFF" transform="translate(0,0)"/>
<path d="" fill="#FFFFFF" transform="translate(0,0)"/>
<path d="" fill="#FFFFFF" transform="translate(0,0)"/>
<path d="" fill="#FFFFFF" transform="translate(0,0)"/>
</svg>
